<?xml version="1.0" encoding="UTF-8" standalone="no"?><svg xmlns="http://www.w3.org/2000/svg" xmlns:xlink="http://www.w3.org/1999/xlink" contentStyleType="text/css" height="1315px" preserveAspectRatio="none" style="width:949px;height:1315px;background:#FFFFFF;" version="1.1" viewBox="0 0 949 1315" width="949px" zoomAndPan="magnify"><defs/><g><ellipse cx="356.25" cy="48.6982" fill="#222222" rx="10" ry="10" style="stroke:#222222;stroke-width:1.0;"/><rect fill="#F1F1F1" height="33.9688" rx="12.5" ry="12.5" style="stroke:#181818;stroke-width:0.5;" width="173" x="269.75" y="78.6982"/><text fill="#000000" font-family="sans-serif" font-size="12" lengthAdjust="spacing" textLength="153" x="279.75" y="99.8369">'Validate input (PipeVal)'</text><rect fill="#F1F1F1" height="33.9688" rx="12.5" ry="12.5" style="stroke:#181818;stroke-width:0.5;" width="346" x="183.25" y="132.667"/><text fill="#000000" font-family="sans-serif" font-size="12" lengthAdjust="spacing" textLength="326" x="193.25" y="153.8057">'Extract chromosome list (extract_GenomeIntervals)'</text><polygon fill="#F1F1F1" points="274.75,186.6357,437.75,186.6357,449.75,198.6357,437.75,210.6357,274.75,210.6357,262.75,198.6357,274.75,186.6357" style="stroke:#181818;stroke-width:0.5;"/><text fill="#000000" font-family="sans-serif" font-size="11" lengthAdjust="spacing" textLength="163" x="274.75" y="202.4438">parallelize_by_chromosome?</text><text fill="#000000" font-family="sans-serif" font-size="11" lengthAdjust="spacing" textLength="21" x="241.75" y="196.0415">Yes</text><text fill="#000000" font-family="sans-serif" font-size="11" lengthAdjust="spacing" textLength="15" x="449.75" y="196.0415">No</text><rect fill="#F1F1F1" height="33.9688" rx="12.5" ry="12.5" style="stroke:#181818;stroke-width:0.5;" width="219" x="130.25" y="220.6357"/><text fill="#000000" font-family="sans-serif" font-size="12" lengthAdjust="spacing" textLength="199" x="140.25" y="241.7744">'SplitIntervals (by chromosome)'</text><rect fill="#F1F1F1" height="33.9688" rx="12.5" ry="12.5" style="stroke:#181818;stroke-width:0.5;" width="207" x="369.25" y="220.6357"/><text fill="#000000" font-family="sans-serif" font-size="12" lengthAdjust="spacing" textLength="187" x="379.25" y="241.7744">'SplitIntervals (scatter_count)'</text><polygon fill="#F1F1F1" points="356.25,260.6045,368.25,272.6045,356.25,284.6045,344.25,272.6045,356.25,260.6045" style="stroke:#181818;stroke-width:0.5;"/><polygon fill="#F1F1F1" points="290.25,304.6045,422.25,304.6045,434.25,316.6045,422.25,328.6045,290.25,328.6045,278.25,316.6045,290.25,304.6045" style="stroke:#181818;stroke-width:0.5;"/><text fill="#000000" font-family="sans-serif" font-size="11" lengthAdjust="spacing" textLength="132" x="290.25" y="320.4126">run_indel_realignment?</text><text fill="#000000" font-family="sans-serif" font-size="11" lengthAdjust="spacing" textLength="21" x="257.25" y="314.0103">Yes</text><text fill="#000000" font-family="sans-serif" font-size="11" lengthAdjust="spacing" textLength="15" x="434.25" y="314.0103">No</text><rect fill="#F1F1F1" height="33.9688" rx="12.5" ry="12.5" style="stroke:#181818;stroke-width:0.5;" width="137" x="384.5" y="348.6045"/><text fill="#000000" font-family="sans-serif" font-size="12" lengthAdjust="spacing" textLength="117" x="394.5" y="369.7432">'Use original BAMs'</text><polygon fill="#F1F1F1" points="356.25,446.542,368.25,458.542,356.25,470.542,344.25,458.542,356.25,446.542" style="stroke:#181818;stroke-width:0.5;"/><polygon fill="#F1F1F1" points="288.25,490.542,424.25,490.542,436.25,502.542,424.25,514.542,288.25,514.542,276.25,502.542,288.25,490.542" style="stroke:#181818;stroke-width:0.5;"/><text fill="#000000" font-family="sans-serif" font-size="11" lengthAdjust="spacing" textLength="21" x="360.25" y="524.7524">Yes</text><text fill="#000000" font-family="sans-serif" font-size="11" lengthAdjust="spacing" textLength="136" x="288.25" y="506.3501">run_base_recalibration?</text><polygon fill="#F1F1F1" points="356.25,700.8506,368.25,712.8506,356.25,724.8506,344.25,712.8506,356.25,700.8506" style="stroke:#181818;stroke-width:0.5;"/><rect fill="#F1F1F1" height="33.9688" rx="12.5" ry="12.5" style="stroke:#181818;stroke-width:0.5;" width="109" x="301.75" y="744.8506"/><text fill="#000000" font-family="sans-serif" font-size="12" lengthAdjust="spacing" textLength="89" x="311.75" y="765.9893">'Interval BAMs'</text><polygon fill="#F1F1F1" points="274.75,798.8193,437.75,798.8193,449.75,810.8193,437.75,822.8193,274.75,822.8193,262.75,810.8193,274.75,798.8193" style="stroke:#181818;stroke-width:0.5;"/><text fill="#000000" font-family="sans-serif" font-size="11" lengthAdjust="spacing" textLength="163" x="274.75" y="814.6274">parallelize_by_chromosome?</text><text fill="#000000" font-family="sans-serif" font-size="11" lengthAdjust="spacing" textLength="21" x="241.75" y="808.2251">Yes</text><text fill="#000000" font-family="sans-serif" font-size="11" lengthAdjust="spacing" textLength="15" x="449.75" y="808.2251">No</text><rect fill="#F1F1F1" height="33.9688" rx="12.5" ry="12.5" style="stroke:#181818;stroke-width:0.5;" width="361" x="21" y="832.8193"/><text fill="#000000" font-family="sans-serif" font-size="12" lengthAdjust="spacing" textLength="341" x="31" y="853.958">'GatherBamFiles_Picard (chromosome order from dict)'</text><rect fill="#F1F1F1" height="33.9688" rx="12.5" ry="12.5" style="stroke:#181818;stroke-width:0.5;" width="165" x="428.5" y="832.8193"/><text fill="#000000" font-family="sans-serif" font-size="12" lengthAdjust="spacing" textLength="145" x="438.5" y="853.958">'MergeSamFiles_Picard'</text><rect fill="#F1F1F1" height="33.9688" rx="12.5" ry="12.5" style="stroke:#181818;stroke-width:0.5;" width="218" x="402" y="886.7881"/><text fill="#000000" font-family="sans-serif" font-size="12" lengthAdjust="spacing" textLength="198" x="412" y="907.9268">'Deduplicate_records_SAMtools'</text><polygon fill="#F1F1F1" points="356.25,926.7568,368.25,938.7568,356.25,950.7568,344.25,938.7568,356.25,926.7568" style="stroke:#181818;stroke-width:0.5;"/><rect fill="#F1F1F1" height="33.9688" rx="12.5" ry="12.5" style="stroke:#181818;stroke-width:0.5;" width="197" x="257.75" y="970.7568"/><text fill="#000000" font-family="sans-serif" font-size="12" lengthAdjust="spacing" textLength="177" x="267.75" y="991.8955">'Index BAM (samtools index)'</text><rect fill="#F1F1F1" height="33.9688" rx="12.5" ry="12.5" style="stroke:#181818;stroke-width:0.5;" width="136" x="288.25" y="1024.7256"/><text fill="#000000" font-family="sans-serif" font-size="12" lengthAdjust="spacing" textLength="116" x="298.25" y="1045.8643">'calculate_sha512'</text><rect fill="#555555" height="6" rx="2.5" ry="2.5" style="stroke:#555555;stroke-width:1.0;" width="473" x="119.75" y="1078.6943"/><rect fill="#F1F1F1" height="33.9688" rx="12.5" ry="12.5" style="stroke:#181818;stroke-width:0.5;" width="192" x="143.75" y="1118.6123"/><text fill="#000000" font-family="sans-serif" font-size="12" lengthAdjust="spacing" textLength="172" x="153.75" y="1139.751">'GetPileupSummaries_GATK'</text><rect fill="#F1F1F1" height="33.9688" rx="12.5" ry="12.5" style="stroke:#181818;stroke-width:0.5;" width="212" x="133.75" y="1187.5811"/><text fill="#000000" font-family="sans-serif" font-size="12" lengthAdjust="spacing" textLength="192" x="143.75" y="1208.7197">'CalculateContamination_GATK'</text><rect fill="#F1F1F1" height="33.9688" rx="12.5" ry="12.5" style="stroke:#181818;stroke-width:0.5;" width="173" x="383.75" y="1153.0967"/><text fill="#000000" font-family="sans-serif" font-size="12" lengthAdjust="spacing" textLength="153" x="393.75" y="1174.2354">'DepthOfCoverage_GATK'</text><polygon fill="#F1F1F1" points="404.75,1104.6943,535.75,1104.6943,547.75,1116.6943,535.75,1128.6943,404.75,1128.6943,392.75,1116.6943,404.75,1104.6943" style="stroke:#181818;stroke-width:0.5;"/><text fill="#000000" font-family="sans-serif" font-size="11" lengthAdjust="spacing" textLength="21" x="474.25" y="1138.9048">Yes</text><text fill="#000000" font-family="sans-serif" font-size="11" lengthAdjust="spacing" textLength="131" x="404.75" y="1120.5024">run_DepthOfCoverage?</text><polygon fill="#F1F1F1" points="470.25,1211.4678,482.25,1223.4678,470.25,1235.4678,458.25,1223.4678,470.25,1211.4678" style="stroke:#181818;stroke-width:0.5;"/><rect fill="#555555" height="6" rx="2.5" ry="2.5" style="stroke:#555555;stroke-width:1.0;" width="473" x="119.75" y="1255.4678"/><ellipse cx="356.25" cy="1292.4678" rx="11" ry="11" style="stroke:#222222;stroke-width:1.0;fill:none;"/><ellipse cx="356.25" cy="1292.4678" fill="#222222" rx="6" ry="6" style="stroke:#111111;stroke-width:1.0;"/><line style="stroke:#000000;stroke-width:1.5;" x1="15" x2="15" y1="12.7451" y2="1303.4678"/><rect fill="#F1F1F1" height="33.9688" rx="12.5" ry="12.5" style="stroke:#181818;stroke-width:0.5;" width="210" x="630" y="348.6045"/><text fill="#000000" font-family="sans-serif" font-size="12" lengthAdjust="spacing" textLength="190" x="640" y="369.7432">'RealignerTargetCreator_GATK'</text><rect fill="#F1F1F1" height="33.9688" rx="12.5" ry="12.5" style="stroke:#181818;stroke-width:0.5;" width="152" x="659" y="402.5732"/><text fill="#000000" font-family="sans-serif" font-size="12" lengthAdjust="spacing" textLength="132" x="669" y="423.7119">'IndelRealigner_GATK'</text><rect fill="#F1F1F1" height="33.9688" rx="12.5" ry="12.5" style="stroke:#181818;stroke-width:0.5;" width="170" x="746.75" y="538.9443"/><text fill="#000000" font-family="sans-serif" font-size="12" lengthAdjust="spacing" textLength="150" x="756.75" y="560.083">'BaseRecalibrator_GATK'</text><rect fill="#F1F1F1" height="33.9688" rx="12.5" ry="12.5" style="stroke:#181818;stroke-width:0.5;" width="188" x="737.75" y="592.9131"/><text fill="#000000" font-family="sans-serif" font-size="12" lengthAdjust="spacing" textLength="168" x="747.75" y="614.0518">'GatherBQSRReports_GATK'</text><rect fill="#F1F1F1" height="33.9688" rx="12.5" ry="12.5" style="stroke:#181818;stroke-width:0.5;" width="129" x="767.25" y="646.8818"/><text fill="#000000" font-family="sans-serif" font-size="12" lengthAdjust="spacing" textLength="109" x="777.25" y="668.0205">'ApplyBQSR_GATK'</text><line style="stroke:#000000;stroke-width:1.5;" x1="624" x2="624" y1="12.7451" y2="1303.4678"/><line style="stroke:#000000;stroke-width:1.5;" x1="929.75" x2="929.75" y1="12.7451" y2="1303.4678"/><line style="stroke:#181818;stroke-width:1.0;" x1="356.25" x2="356.25" y1="58.6982" y2="78.6982"/><polygon fill="#181818" points="352.25,68.6982,356.25,78.6982,360.25,68.6982,356.25,72.6982" style="stroke:#181818;stroke-width:1.0;"/><line style="stroke:#181818;stroke-width:1.0;" x1="356.25" x2="356.25" y1="112.667" y2="132.667"/><polygon fill="#181818" points="352.25,122.667,356.25,132.667,360.25,122.667,356.25,126.667" style="stroke:#181818;stroke-width:1.0;"/><line style="stroke:#181818;stroke-width:1.0;" x1="262.75" x2="239.75" y1="198.6357" y2="198.6357"/><line style="stroke:#181818;stroke-width:1.0;" x1="239.75" x2="239.75" y1="198.6357" y2="220.6357"/><polygon fill="#181818" points="235.75,210.6357,239.75,220.6357,243.75,210.6357,239.75,214.6357" style="stroke:#181818;stroke-width:1.0;"/><line style="stroke:#181818;stroke-width:1.0;" x1="449.75" x2="472.75" y1="198.6357" y2="198.6357"/><line style="stroke:#181818;stroke-width:1.0;" x1="472.75" x2="472.75" y1="198.6357" y2="220.6357"/><polygon fill="#181818" points="468.75,210.6357,472.75,220.6357,476.75,210.6357,472.75,214.6357" style="stroke:#181818;stroke-width:1.0;"/><line style="stroke:#181818;stroke-width:1.0;" x1="239.75" x2="239.75" y1="254.6045" y2="272.6045"/><line style="stroke:#181818;stroke-width:1.0;" x1="239.75" x2="344.25" y1="272.6045" y2="272.6045"/><polygon fill="#181818" points="334.25,268.6045,344.25,272.6045,334.25,276.6045,338.25,272.6045" style="stroke:#181818;stroke-width:1.0;"/><line style="stroke:#181818;stroke-width:1.0;" x1="472.75" x2="472.75" y1="254.6045" y2="272.6045"/><line style="stroke:#181818;stroke-width:1.0;" x1="472.75" x2="368.25" y1="272.6045" y2="272.6045"/><polygon fill="#181818" points="378.25,268.6045,368.25,272.6045,378.25,276.6045,374.25,272.6045" style="stroke:#181818;stroke-width:1.0;"/><line style="stroke:#181818;stroke-width:1.0;" x1="356.25" x2="356.25" y1="166.6357" y2="186.6357"/><polygon fill="#181818" points="352.25,176.6357,356.25,186.6357,360.25,176.6357,356.25,180.6357" style="stroke:#181818;stroke-width:1.0;"/><line style="stroke:#181818;stroke-width:1.0;" x1="434.25" x2="453" y1="316.6045" y2="316.6045"/><line style="stroke:#181818;stroke-width:1.0;" x1="453" x2="453" y1="316.6045" y2="348.6045"/><polygon fill="#181818" points="449,338.6045,453,348.6045,457,338.6045,453,342.6045" style="stroke:#181818;stroke-width:1.0;"/><line style="stroke:#181818;stroke-width:1.0;" x1="453" x2="453" y1="382.5732" y2="458.542"/><line style="stroke:#181818;stroke-width:1.0;" x1="453" x2="368.25" y1="458.542" y2="458.542"/><polygon fill="#181818" points="378.25,454.542,368.25,458.542,378.25,462.542,374.25,458.542" style="stroke:#181818;stroke-width:1.0;"/><line style="stroke:#181818;stroke-width:1.0;" x1="356.25" x2="356.25" y1="284.6045" y2="304.6045"/><polygon fill="#181818" points="352.25,294.6045,356.25,304.6045,360.25,294.6045,356.25,298.6045" style="stroke:#181818;stroke-width:1.0;"/><line style="stroke:#181818;stroke-width:1.0;" x1="436.25" x2="460.25" y1="502.542" y2="502.542"/><polygon fill="#181818" points="456.25,599.8975,460.25,609.8975,464.25,599.8975,460.25,603.8975" style="stroke:#181818;stroke-width:1.0;"/><line style="stroke:#181818;stroke-width:1.0;" x1="460.25" x2="460.25" y1="502.542" y2="712.8506"/><line style="stroke:#181818;stroke-width:1.0;" x1="460.25" x2="368.25" y1="712.8506" y2="712.8506"/><polygon fill="#181818" points="378.25,708.8506,368.25,712.8506,378.25,716.8506,374.25,712.8506" style="stroke:#181818;stroke-width:1.0;"/><line style="stroke:#181818;stroke-width:1.0;" x1="356.25" x2="356.25" y1="470.542" y2="490.542"/><polygon fill="#181818" points="352.25,480.542,356.25,490.542,360.25,480.542,356.25,484.542" style="stroke:#181818;stroke-width:1.0;"/><line style="stroke:#181818;stroke-width:1.0;" x1="356.25" x2="356.25" y1="724.8506" y2="744.8506"/><polygon fill="#181818" points="352.25,734.8506,356.25,744.8506,360.25,734.8506,356.25,738.8506" style="stroke:#181818;stroke-width:1.0;"/><line style="stroke:#181818;stroke-width:1.0;" x1="511" x2="511" y1="866.7881" y2="886.7881"/><polygon fill="#181818" points="507,876.7881,511,886.7881,515,876.7881,511,880.7881" style="stroke:#181818;stroke-width:1.0;"/><line style="stroke:#181818;stroke-width:1.0;" x1="262.75" x2="201.5" y1="810.8193" y2="810.8193"/><line style="stroke:#181818;stroke-width:1.0;" x1="201.5" x2="201.5" y1="810.8193" y2="832.8193"/><polygon fill="#181818" points="197.5,822.8193,201.5,832.8193,205.5,822.8193,201.5,826.8193" style="stroke:#181818;stroke-width:1.0;"/><line style="stroke:#181818;stroke-width:1.0;" x1="449.75" x2="511" y1="810.8193" y2="810.8193"/><line style="stroke:#181818;stroke-width:1.0;" x1="511" x2="511" y1="810.8193" y2="832.8193"/><polygon fill="#181818" points="507,822.8193,511,832.8193,515,822.8193,511,826.8193" style="stroke:#181818;stroke-width:1.0;"/><line style="stroke:#181818;stroke-width:1.0;" x1="201.5" x2="201.5" y1="866.7881" y2="938.7568"/><line style="stroke:#181818;stroke-width:1.0;" x1="201.5" x2="344.25" y1="938.7568" y2="938.7568"/><polygon fill="#181818" points="334.25,934.7568,344.25,938.7568,334.25,942.7568,338.25,938.7568" style="stroke:#181818;stroke-width:1.0;"/><line style="stroke:#181818;stroke-width:1.0;" x1="511" x2="511" y1="920.7568" y2="938.7568"/><line style="stroke:#181818;stroke-width:1.0;" x1="511" x2="368.25" y1="938.7568" y2="938.7568"/><polygon fill="#181818" points="378.25,934.7568,368.25,938.7568,378.25,942.7568,374.25,938.7568" style="stroke:#181818;stroke-width:1.0;"/><line style="stroke:#181818;stroke-width:1.0;" x1="356.25" x2="356.25" y1="778.8193" y2="798.8193"/><polygon fill="#181818" points="352.25,788.8193,356.25,798.8193,360.25,788.8193,356.25,792.8193" style="stroke:#181818;stroke-width:1.0;"/><line style="stroke:#181818;stroke-width:1.0;" x1="356.25" x2="356.25" y1="950.7568" y2="970.7568"/><polygon fill="#181818" points="352.25,960.7568,356.25,970.7568,360.25,960.7568,356.25,964.7568" style="stroke:#181818;stroke-width:1.0;"/><line style="stroke:#181818;stroke-width:1.0;" x1="356.25" x2="356.25" y1="1004.7256" y2="1024.7256"/><polygon fill="#181818" points="352.25,1014.7256,356.25,1024.7256,360.25,1014.7256,356.25,1018.7256" style="stroke:#181818;stroke-width:1.0;"/><line style="stroke:#181818;stroke-width:1.0;" x1="239.75" x2="239.75" y1="1152.5811" y2="1187.5811"/><polygon fill="#181818" points="235.75,1177.5811,239.75,1187.5811,243.75,1177.5811,239.75,1181.5811" style="stroke:#181818;stroke-width:1.0;"/><line style="stroke:#181818;stroke-width:1.0;" x1="470.25" x2="470.25" y1="1128.6943" y2="1153.0967"/><polygon fill="#181818" points="466.25,1143.0967,470.25,1153.0967,474.25,1143.0967,470.25,1147.0967" style="stroke:#181818;stroke-width:1.0;"/><line style="stroke:#181818;stroke-width:1.0;" x1="547.75" x2="566.75" y1="1116.6943" y2="1116.6943"/><polygon fill="#181818" points="562.75,1160.0811,566.75,1170.0811,570.75,1160.0811,566.75,1164.0811" style="stroke:#181818;stroke-width:1.0;"/><line style="stroke:#181818;stroke-width:1.0;" x1="566.75" x2="566.75" y1="1116.6943" y2="1223.4678"/><line style="stroke:#181818;stroke-width:1.0;" x1="566.75" x2="482.25" y1="1223.4678" y2="1223.4678"/><polygon fill="#181818" points="492.25,1219.4678,482.25,1223.4678,492.25,1227.4678,488.25,1223.4678" style="stroke:#181818;stroke-width:1.0;"/><line style="stroke:#181818;stroke-width:1.0;" x1="470.25" x2="470.25" y1="1187.0654" y2="1211.4678"/><polygon fill="#181818" points="466.25,1201.4678,470.25,1211.4678,474.25,1201.4678,470.25,1205.4678" style="stroke:#181818;stroke-width:1.0;"/><line style="stroke:#181818;stroke-width:1.0;" x1="239.75" x2="239.75" y1="1084.6943" y2="1118.6123"/><polygon fill="#181818" points="235.75,1108.6123,239.75,1118.6123,243.75,1108.6123,239.75,1112.6123" style="stroke:#181818;stroke-width:1.0;"/><line style="stroke:#181818;stroke-width:1.0;" x1="470.25" x2="470.25" y1="1084.6943" y2="1104.6943"/><polygon fill="#181818" points="466.25,1094.6943,470.25,1104.6943,474.25,1094.6943,470.25,1098.6943" style="stroke:#181818;stroke-width:1.0;"/><line style="stroke:#181818;stroke-width:1.0;" x1="239.75" x2="239.75" y1="1221.5498" y2="1255.4678"/><polygon fill="#181818" points="235.75,1245.4678,239.75,1255.4678,243.75,1245.4678,239.75,1249.4678" style="stroke:#181818;stroke-width:1.0;"/><line style="stroke:#181818;stroke-width:1.0;" x1="470.25" x2="470.25" y1="1235.4678" y2="1255.4678"/><polygon fill="#181818" points="466.25,1245.4678,470.25,1255.4678,474.25,1245.4678,470.25,1249.4678" style="stroke:#181818;stroke-width:1.0;"/><line style="stroke:#181818;stroke-width:1.0;" x1="356.25" x2="356.25" y1="1058.6943" y2="1078.6943"/><polygon fill="#181818" points="352.25,1068.6943,356.25,1078.6943,360.25,1068.6943,356.25,1072.6943" style="stroke:#181818;stroke-width:1.0;"/><line style="stroke:#181818;stroke-width:1.0;" x1="356.25" x2="356.25" y1="1261.4678" y2="1281.4678"/><polygon fill="#181818" points="352.25,1271.4678,356.25,1281.4678,360.25,1271.4678,356.25,1275.4678" style="stroke:#181818;stroke-width:1.0;"/><line style="stroke:#181818;stroke-width:1.0;" x1="735" x2="735" y1="382.5732" y2="402.5732"/><polygon fill="#181818" points="731,392.5732,735,402.5732,739,392.5732,735,396.5732" style="stroke:#181818;stroke-width:1.0;"/><line style="stroke:#181818;stroke-width:1.0;" x1="831.75" x2="831.75" y1="572.9131" y2="592.9131"/><polygon fill="#181818" points="827.75,582.9131,831.75,592.9131,835.75,582.9131,831.75,586.9131" style="stroke:#181818;stroke-width:1.0;"/><line style="stroke:#181818;stroke-width:1.0;" x1="831.75" x2="831.75" y1="626.8818" y2="646.8818"/><polygon fill="#181818" points="827.75,636.8818,831.75,646.8818,835.75,636.8818,831.75,640.8818" style="stroke:#181818;stroke-width:1.0;"/><line style="stroke:#181818;stroke-width:1.0;" x1="278.25" x2="266.25" y1="316.6045" y2="316.6045"/><line style="stroke:#181818;stroke-width:1.0;" x1="266.25" x2="266.25" y1="316.6045" y2="334.6045"/><line style="stroke:#181818;stroke-width:1.0;" x1="266.25" x2="735" y1="334.6045" y2="334.6045"/><line style="stroke:#181818;stroke-width:1.0;" x1="735" x2="735" y1="334.6045" y2="348.6045"/><polygon fill="#181818" points="731,338.6045,735,348.6045,739,338.6045,735,342.6045" style="stroke:#181818;stroke-width:1.0;"/><line style="stroke:#181818;stroke-width:1.0;" x1="735" x2="735" y1="436.542" y2="440.542"/><line style="stroke:#181818;stroke-width:1.0;" x1="735" x2="326.25" y1="440.542" y2="440.542"/><line style="stroke:#181818;stroke-width:1.0;" x1="326.25" x2="326.25" y1="440.542" y2="458.542"/><line style="stroke:#181818;stroke-width:1.0;" x1="326.25" x2="344.25" y1="458.542" y2="458.542"/><polygon fill="#181818" points="334.25,454.542,344.25,458.542,334.25,462.542,338.25,458.542" style="stroke:#181818;stroke-width:1.0;"/><line style="stroke:#181818;stroke-width:1.0;" x1="356.25" x2="356.25" y1="514.542" y2="526.7432"/><line style="stroke:#181818;stroke-width:1.0;" x1="356.25" x2="831.75" y1="526.7432" y2="526.7432"/><line style="stroke:#181818;stroke-width:1.0;" x1="831.75" x2="831.75" y1="526.7432" y2="538.9443"/><polygon fill="#181818" points="827.75,528.9443,831.75,538.9443,835.75,528.9443,831.75,532.9443" style="stroke:#181818;stroke-width:1.0;"/><line style="stroke:#181818;stroke-width:1.0;" x1="831.75" x2="831.75" y1="680.8506" y2="688.6494"/><line style="stroke:#181818;stroke-width:1.0;" x1="831.75" x2="356.25" y1="688.6494" y2="688.6494"/><line style="stroke:#181818;stroke-width:1.0;" x1="356.25" x2="356.25" y1="688.6494" y2="700.8506"/><polygon fill="#181818" points="352.25,690.8506,356.25,700.8506,360.25,690.8506,356.25,694.8506" style="stroke:#181818;stroke-width:1.0;"/><text fill="#000000" font-family="sans-serif" font-size="18" font-weight="bold" lengthAdjust="spacing" textLength="226" x="209.5" y="29.4531">Parallelized by sample</text><text fill="#000000" font-family="sans-serif" font-size="18" font-weight="bold" lengthAdjust="spacing" textLength="233" x="663.375" y="29.4531">Parallelized by interval</text><!--MD5=[a8a16fdd1a9dccc998c4ceb9991660ff]
@startuml
skinparam SwimlaneTitleFontStyle bold

|s| Parallelized by sample
|i| Parallelized by interval

|s|
start

:'Validate input (PipeVal)';

:'Extract chromosome list (extract_GenomeIntervals)';

if (parallelize_by_chromosome?) then (Yes)
    :'SplitIntervals (by chromosome)';
else (No)
    :'SplitIntervals (scatter_count)';
endif

if (run_indel_realignment?) then (Yes)
    |i|
    :'RealignerTargetCreator_GATK';
    :'IndelRealigner_GATK';
    |s|
else (No)
    :'Use original BAMs';
endif

if (run_base_recalibration?) then (Yes)
    |i|
    :'BaseRecalibrator_GATK';
    :'GatherBQSRReports_GATK';
    :'ApplyBQSR_GATK';
    |s|
endif

:'Interval BAMs';

if (parallelize_by_chromosome?) then (Yes)
    :'GatherBamFiles_Picard (chromosome order from dict)';
else (No)
    :'MergeSamFiles_Picard';
    :'Deduplicate_records_SAMtools';
endif

:'Index BAM (samtools index)';

:'calculate_sha512';

fork
    :'GetPileupSummaries_GATK';
    :'CalculateContamination_GATK';
fork again
    if (run_DepthOfCoverage?) then (Yes)
        :'DepthOfCoverage_GATK';
    endif
end fork

stop
@enduml

PlantUML version 1.2022.6(Tue Jun 21 17:34:49 GMT 2022)
(GPL source distribution)
Java Runtime: OpenJDK Runtime Environment
JVM: OpenJDK 64-Bit Server VM
Default Encoding: UTF-8
Language: en
Country: US
--></g></svg>